<svg id="Layer_1" data-name="Layer 1" xmlns="http://www.w3.org/2000/svg" viewBox="0 0 418.71 64">
    <defs>
        <style>
            .logo {
                fill: #2e2e2e;
            }
            @media (prefers-color-scheme: dark) {
                .logo {
                    fill: #fff;
                }
            }

            .cls-4{fill:#d01f15}.cls-7{fill:#fefcfe}
        </style>
    </defs>
    <path
        class="logo"
        d="M90.06 41.76h11.19V46H84.78V20.41h5.28v21.35zM115 46a6 6 0 0 1-.51-1.71 6.15 6.15 0 0 1-4.8 2.06 6.76 6.76 0 0 1-4.69-1.62 5.18 5.18 0 0 1-1.83-4.07 5.34 5.34 0 0 1 2.26-4.66 11 11 0 0 1 6.47-1.64h2.34v-1.07a3.14 3.14 0 0 0-.67-2.11 2.71 2.71 0 0 0-2.14-.79 3 3 0 0 0-2 .62 2.07 2.07 0 0 0-.73 1.68h-5.08a5.06 5.06 0 0 1 1-3 6.71 6.71 0 0 1 2.88-2.21 10.56 10.56 0 0 1 4.18-.8 8.26 8.26 0 0 1 5.58 1.77 6.15 6.15 0 0 1 2.07 5v8.25a8.93 8.93 0 0 0 .76 4.09V46zm-4.2-3.53a4.47 4.47 0 0 0 2.08-.5 3.32 3.32 0 0 0 1.4-1.35v-3.27h-1.89q-3.82 0-4.06 2.64v.3a2 2 0 0 0 .67 1.56 2.57 2.57 0 0 0 1.82.62zm23.17-10.73a14.43 14.43 0 0 0-1.83-.14q-2.88 0-3.78 1.95V46h-5.08V27H128l.14 2.27a4.7 4.7 0 0 1 4.24-2.62 5.07 5.07 0 0 1 1.58.23zM146.87 46a6 6 0 0 1-.51-1.71 6.15 6.15 0 0 1-4.8 2.06 6.74 6.74 0 0 1-4.63-1.62 5.16 5.16 0 0 1-1.84-4.07 5.37 5.37 0 0 1 2.24-4.66 11.06 11.06 0 0 1 6.48-1.64h2.34v-1.07a3.15 3.15 0 0 0-.68-2.11 2.68 2.68 0 0 0-2.13-.79 3 3 0 0 0-2 .62 2.1 2.1 0 0 0-.73 1.68h-5.08a5.06 5.06 0 0 1 1-3 6.68 6.68 0 0 1 2.89-2.21 10.53 10.53 0 0 1 4.18-.8 8.3 8.3 0 0 1 5.58 1.77 6.15 6.15 0 0 1 2.07 5v8.25a9.08 9.08 0 0 0 .75 4v.3zm-4.2-3.53a4.4 4.4 0 0 0 2.07-.5 3.35 3.35 0 0 0 1.41-1.35v-3.27h-1.9c-2.54 0-3.9.88-4.06 2.64v.3a2 2 0 0 0 .67 1.56 2.6 2.6 0 0 0 1.83.62zM162 39.79 165.54 27h5.31l-6.42 19h-4.85l-6.42-19h5.31zm19.6 6.56a9.29 9.29 0 0 1-6.81-2.57 9.12 9.12 0 0 1-2.63-6.78v-.5a11.46 11.46 0 0 1 1.11-5.12 8.23 8.23 0 0 1 3.14-3.48 8.84 8.84 0 0 1 4.59-1.27 7.92 7.92 0 0 1 6.15 2.46q2.24 2.46 2.24 7v2.07h-12.07a4.71 4.71 0 0 0 1.48 3 4.5 4.5 0 0 0 3.14 1.13 5.5 5.5 0 0 0 4.59-2.13l2.47 2.76a7.66 7.66 0 0 1-3.09 2.53 10.2 10.2 0 0 1-4.33.9zm-.6-15.61a3.19 3.19 0 0 0-2.45 1 5.2 5.2 0 0 0-1.2 2.92h7.06v-.41a3.78 3.78 0 0 0-.91-2.61 3.31 3.31 0 0 0-2.5-.92zM197.67 46h-5.1V19h5.1z"
        style="fill-rule:evenodd;"/>
    <path
        d="M45.89 21.65V10.91a1.52 1.52 0 0 1 1.52-1.51 1.52 1.52 0 0 0 1.51-1.52v-2C48.92 1 30.74.94 30.74.94S12.55 1 12.55 5.86v2a1.52 1.52 0 0 0 1.52 1.54 1.51 1.51 0 0 1 1.51 1.51v10.74z"
        style="fill:#fad59a"/>
    <path
        d="M43.59 2.28c1.4.65 2.3 1.49 2.3 2.57v2a1.52 1.52 0 0 1-1.52 1.52 1.52 1.52 0 0 0-1.51 1.53v11.75h3V10.91a1.52 1.52 0 0 1 1.55-1.51 1.52 1.52 0 0 0 1.51-1.52v-2c0-1.75-2.34-2.88-5.33-3.6z"
        style="fill:#f9c36e"/>
    <path class="cls-4" d="M58 32h3.8v4.29H58zM58 58H3.46V26.65a5 5 0 0 1 5-5H53a5 5 0 0 1 5 5z"/>
    <path d="M58 58H3.46V26.65a5 5 0 0 1 5-5H53a5 5 0 0 1 5 5z" style="fill:#ff2d20"/>
    <path class="cls-4"
          d="M53 21.65h-2.81a5 5 0 0 1 5.05 5.05V54A1.27 1.27 0 0 1 54 55.24H3.46V58H58V26.7a5 5 0 0 0-5-5.05zM17.17 21.65 3.46 35.35v-3.57L13.6 21.65zM28.24 21.65 3.46 46.43v-7.15L21.1 21.65zM.94 58h59.6v5.05H.94z"/>
    <path d="M57.26 58h3.28v5.05h-3.28z" style="fill:#d01f20"/>
    <circle class="cls-7" cx="30.74" cy="37.3" r="5.05"/>
    <path class="cls-7" d="M33.4 33a5.05 5.05 0 0 1-4.29 7.72 5 5 0 0 1-2.66-.72 5.05 5.05 0 1 0 7-7z"/>
    <circle class="cls-7" cx="30.74" cy="48.29" r="2.15"/>
    <circle class="cls-7" cx="22.4" cy="48.29" r="2.15"/>
    <circle class="cls-7" cx="39.07" cy="48.29" r="2.15"/>
    <path
        d="M30.74 31.32a6 6 0 1 0 6 6 6 6 0 0 0-6-6zm0 10.1a4.11 4.11 0 0 1-.94-8.12v1.86a.94.94 0 0 0 1.87 0V33.3a4.11 4.11 0 0 1-.93 8.12zM27.65 48.29a3.09 3.09 0 1 0 3.09-3.09 3.09 3.09 0 0 0-3.09 3.09zm4.3 0a1.21 1.21 0 1 1-1.21-1.21A1.21 1.21 0 0 1 32 48.29zM22.4 45.2a3.09 3.09 0 1 0 3.09 3.09 3.09 3.09 0 0 0-3.09-3.09zm0 4.3a1.21 1.21 0 1 1 1.21-1.21 1.21 1.21 0 0 1-1.21 1.21zM39.07 51.37A3.09 3.09 0 1 0 36 48.29a3.09 3.09 0 0 0 3.07 3.08zm0-4.29a1.21 1.21 0 1 1-1.21 1.21 1.21 1.21 0 0 1 1.21-1.21z"/>
    <path
        d="M61.8 31.06H59v-4.41a5.94 5.94 0 0 0-6-5.94h-6.17v-9.8a.57.57 0 0 1 .57-.57 2.46 2.46 0 0 0 2.46-2.46v-2c0-2.58-3.24-4.29-9.9-5.2A78.59 78.59 0 0 0 30.73 0a78.37 78.37 0 0 0-9.21.66c-6.66.91-9.9 2.62-9.9 5.2v2a2.46 2.46 0 0 0 2.45 2.46.57.57 0 0 1 .58.57v1.9a.94.94 0 1 0 1.87 0v-1.9a2.45 2.45 0 0 0-2.45-2.45.58.58 0 0 1-.58-.58v-2c0-.52.6-2.29 8.27-3.34a80.23 80.23 0 0 1 9-.65 80.3 80.3 0 0 1 9 .65C47.39 3.57 48 5.34 48 5.86v2a.58.58 0 0 1-.58.58A2.45 2.45 0 0 0 45 10.91v9.8H16.52V17.2a.94.94 0 1 0-1.87 0v3.51H8.46a5.94 5.94 0 0 0-5.93 5.94v19.91a.94.94 0 1 0 1.87 0V26.65a4.07 4.07 0 0 1 4.06-4.07H53a4.07 4.07 0 0 1 4.06 4.07v30.42H4.4V51a.94.94 0 1 0-1.87 0v6.12H.94A.94.94 0 0 0 0 58v5.05a.94.94 0 0 0 .94.95h48.87a.94.94 0 0 0 0-1.87H1.87V59H59.6v3.18h-5.41a.94.94 0 1 0 0 1.87h6.35a.94.94 0 0 0 .93-.94V58a.94.94 0 0 0-.93-.94H59V37.23h2.8a.94.94 0 0 0 .94-.94V32a.94.94 0 0 0-.94-.94zm-.94 4.3H59v-2.42h1.91z"/>
    <path class="logo"
          d="M211.69 46V20.41h7.56q4.11 0 6.24 1.69a6 6 0 0 1 2.13 5 5.7 5.7 0 0 1-1.08 3.46 5.94 5.94 0 0 1-3 2.1 6.19 6.19 0 0 1 3.6 2.19 6.13 6.13 0 0 1 1.36 3.94 6.67 6.67 0 0 1-2.19 5.3 9 9 0 0 1-6.09 1.9zm2.16-14.11h5.91a6.62 6.62 0 0 0 4.24-1.28 4.37 4.37 0 0 0 1.44-3.61 4.26 4.26 0 0 0-1.54-3.63 7.66 7.66 0 0 0-4.65-1.17h-5.4zm0 1.82v10.46h6.49a6.48 6.48 0 0 0 4.4-1.41 4.9 4.9 0 0 0 1.63-3.92 4.75 4.75 0 0 0-1.56-3.75 6.23 6.23 0 0 0-4.29-1.38zM242.05 28.77a8.08 8.08 0 0 0-1.42-.12 5.17 5.17 0 0 0-3.34 1.1 6.09 6.09 0 0 0-1.94 3.19V46h-2.09V27h2.06v3a5.6 5.6 0 0 1 5.36-3.38 3.49 3.49 0 0 1 1.39.23zM252.4 46.35a8.3 8.3 0 0 1-4.4-1.19 8.12 8.12 0 0 1-3-3.33 10.36 10.36 0 0 1-1.12-4.83v-.76a11.19 11.19 0 0 1 1.06-4.94 8.54 8.54 0 0 1 3-3.45 7.32 7.32 0 0 1 4.06-1.22 6.88 6.88 0 0 1 5.51 2.37 9.62 9.62 0 0 1 2 6.46v1.18H246V37a8 8 0 0 0 1.85 5.38 5.91 5.91 0 0 0 4.67 2.16 6.84 6.84 0 0 0 3-.62 6.61 6.61 0 0 0 2.35-2l1.32 1a7.71 7.71 0 0 1-6.79 3.43zm-.4-17.93a5.24 5.24 0 0 0-4 1.74 8 8 0 0 0-2 4.68h11.41v-.23a6.92 6.92 0 0 0-1.57-4.46 4.83 4.83 0 0 0-3.84-1.73zM275.64 46a10.07 10.07 0 0 1-.4-2.65 7.35 7.35 0 0 1-2.82 2.22 8.71 8.71 0 0 1-3.63.78 6.37 6.37 0 0 1-4.44-1.53 5 5 0 0 1-1.7-3.86 5.09 5.09 0 0 1 2.31-4.4 11.1 11.1 0 0 1 6.45-1.62h3.81v-2.16a4.17 4.17 0 0 0-1.22-3.21 5.24 5.24 0 0 0-3.66-1.16 5.73 5.73 0 0 0-3.64 1.12 3.34 3.34 0 0 0-1.44 2.71h-2.11a4.89 4.89 0 0 1 2.11-3.93 8.08 8.08 0 0 1 5.18-1.66 7.41 7.41 0 0 1 5 1.59 5.67 5.67 0 0 1 1.89 4.44v9a11.29 11.29 0 0 0 .58 4.13V46zM269 44.49a7.05 7.05 0 0 0 3.77-1 6 6 0 0 0 2.42-2.72v-4.21h-3.76a9.51 9.51 0 0 0-4.92 1.15 3.46 3.46 0 0 0-1.78 3.07 3.42 3.42 0 0 0 1.27 2.66 4.48 4.48 0 0 0 3 1.05zM282.08 36.32a11.44 11.44 0 0 1 2-7.06 6.38 6.38 0 0 1 5.37-2.63 6.59 6.59 0 0 1 5.87 3V19h2.1v27h-2l-.09-2.53a6.8 6.8 0 0 1-5.94 2.88 6.35 6.35 0 0 1-5.3-2.64 11.56 11.56 0 0 1-2-7.15zm2.12.37a9.92 9.92 0 0 0 1.46 5.73 4.72 4.72 0 0 0 4.11 2.1 5.66 5.66 0 0 0 5.52-3.42v-8.93a5.6 5.6 0 0 0-5.48-3.71 4.76 4.76 0 0 0-4.13 2.08q-1.48 2.09-1.48 6.15zM310 44.58a5.6 5.6 0 0 0 3.69-1.24 4.41 4.41 0 0 0 1.61-3.21h2a6 6 0 0 1-1.09 3.17 6.73 6.73 0 0 1-2.67 2.24 8 8 0 0 1-3.56.81 7.33 7.33 0 0 1-5.93-2.6 10.49 10.49 0 0 1-2.19-7v-.64a11.82 11.82 0 0 1 1-5 7.49 7.49 0 0 1 2.82-3.34 7.75 7.75 0 0 1 4.3-1.18 7.37 7.37 0 0 1 5.16 1.86 6.85 6.85 0 0 1 2.17 4.91h-2a5.47 5.47 0 0 0-9.73-2.92 9.29 9.29 0 0 0-1.58 5.77v.61a9.09 9.09 0 0 0 1.58 5.68 5.25 5.25 0 0 0 4.42 2.08zM330.26 28.77a8.11 8.11 0 0 0-1.43-.12 5.16 5.16 0 0 0-3.33 1.1 6 6 0 0 0-1.94 3.19V46h-2.09V27h2v3a5.59 5.59 0 0 1 5.36-3.38 3.49 3.49 0 0 1 1.39.23zM345.81 43.59q-1.89 2.76-6.06 2.76a5.89 5.89 0 0 1-4.62-1.76 7.7 7.7 0 0 1-1.62-5.23V27h2.09v12.09q0 5.43 4.4 5.43c3 0 5-1.25 5.78-3.77V27h2.11v19h-2zM355.27 27l.07 3.1a7 7 0 0 1 2.66-2.61 7.24 7.24 0 0 1 3.51-.86q4.5 0 5.72 3.69a7.13 7.13 0 0 1 2.72-2.73 7.54 7.54 0 0 1 3.76-1q6.12 0 6.24 6.68V46h-2.11V33.47a5.61 5.61 0 0 0-1.1-3.78 4.46 4.46 0 0 0-3.52-1.23 5.56 5.56 0 0 0-3.83 1.47 5.18 5.18 0 0 0-1.74 3.49V46h-2.11V33.31a5.25 5.25 0 0 0-1.15-3.65 4.6 4.6 0 0 0-3.49-1.2 5.33 5.33 0 0 0-3.41 1.13 6.69 6.69 0 0 0-2.13 3.41v13h-2.11V27zM400.57 36.69a11.46 11.46 0 0 1-2 7.05 6.29 6.29 0 0 1-5.29 2.61 6.83 6.83 0 0 1-6-3l-.09 2.6h-2V19h2.09v10.74a6.63 6.63 0 0 1 5.94-3.11 6.36 6.36 0 0 1 5.34 2.58 11.54 11.54 0 0 1 2 7.16zm-2.11-.37a9.91 9.91 0 0 0-1.46-5.81 4.74 4.74 0 0 0-4.11-2.05 5.81 5.81 0 0 0-3.43 1 6 6 0 0 0-2.13 2.91v8.58a5.64 5.64 0 0 0 5.59 3.58 4.72 4.72 0 0 0 4.08-2.06q1.46-2.05 1.46-6.15zM416.6 41.17a3 3 0 0 0-1.26-2.52 9.73 9.73 0 0 0-3.78-1.48 17.31 17.31 0 0 1-3.93-1.23 5.22 5.22 0 0 1-2.08-1.7 4.22 4.22 0 0 1-.67-2.42 4.51 4.51 0 0 1 1.88-3.72 7.58 7.58 0 0 1 4.81-1.47 7.82 7.82 0 0 1 5.11 1.57 5.06 5.06 0 0 1 1.92 4.11h-2.1a3.41 3.41 0 0 0-1.4-2.78 6.29 6.29 0 0 0-6.86-.18 2.82 2.82 0 0 0-1.25 2.4 2.58 2.58 0 0 0 1 2.2 11.05 11.05 0 0 0 3.82 1.43 18.35 18.35 0 0 1 4.19 1.39 5.43 5.43 0 0 1 2 1.78 4.5 4.5 0 0 1 .67 2.51 4.56 4.56 0 0 1-1.94 3.85 8.32 8.32 0 0 1-5.07 1.44 8.48 8.48 0 0 1-5.39-1.61 4.93 4.93 0 0 1-2.07-4.06h2.11a3.64 3.64 0 0 0 1.56 2.87 6.39 6.39 0 0 0 3.79 1 6 6 0 0 0 3.55-1 2.9 2.9 0 0 0 1.39-2.38z"/>
</svg>
