<svg xmlns="http://www.w3.org/2000/svg" enable-background="new 0 0 48 512" height="512" viewBox="0 0 512 512" width="512"><path d="m372.169 173.167v-85.864c0-6.695 5.427-12.122 12.122-12.122 6.695 0 12.122-5.427 12.122-12.122v-16.163c0-38.723-145.464-39.396-145.464-39.396s-145.463.673-145.463 39.396v16.163c0 6.695 5.427 12.122 12.122 12.122 6.695 0 12.122 5.427 12.122 12.122v85.864z" fill="#fad59a"/><path d="m353.738 18.201c11.21 5.262 18.431 11.993 18.431 20.614v16.163c0 6.695-5.427 12.122-12.122 12.122s-12.122 5.427-12.122 12.122v93.945h24.244v-85.864c0-6.695 5.427-12.122 12.122-12.122s12.122-5.427 12.122-12.122v-16.163c0-13.88-18.693-22.871-42.675-28.695z" fill="#f9c36e"/><path d="m469.144 256h30.305v34.346h-30.305z" fill="#d01f15"/><path d="m469.144 464.094h-436.39v-250.927c0-22.091 17.909-40 40-40h356.39c22.091 0 40 17.909 40 40z" fill="#d01f15"/><path d="m469.144 464.094h-436.39v-250.927c0-22.091 17.909-40 40-40h356.39c22.091 0 40 17.909 40 40z" fill="#ff2d20"/><path d="m428.738 173.167h-22.173c22.316 0 40.406 18.091 40.406 40.406v218.246c0 5.579-4.523 10.102-10.102 10.102h-404.115v22.173h436.39v-250.52c.001-22.317-18.09-40.407-40.406-40.407z" fill="#d01f15"/><path d="m142.417 173.167-109.663 109.663v-28.567l81.096-81.096z" fill="#d01f15"/><path d="m230.988 173.167-198.234 198.234v-57.135l141.1-141.099z" fill="#d01f15"/><path d="m12.551 464.094h476.797v40.407h-476.797z" fill="#d01f15"/><path d="m463.145 464.094h26.203v40.407h-26.203z" fill="#d01f20"/><circle cx="250.949" cy="298.427" fill="#fefcfe" r="40.407"/><g fill="#fefcfe"><path d="m272.27 264.106c3.853 6.19 6.086 13.493 6.086 21.321 0 22.316-18.091 40.406-40.407 40.406-7.828 0-15.131-2.233-21.321-6.086 7.132 11.456 19.832 19.086 34.321 19.086 22.316 0 40.407-18.091 40.407-40.406 0-14.488-7.63-27.189-19.086-34.321z"/><circle cx="250.949" cy="386.311" r="17.173"/><circle cx="184.278" cy="386.311" r="17.173"/><circle cx="317.62" cy="386.311" r="17.173"/></g><path d="m250.949 250.521c-26.416 0-47.907 21.491-47.907 47.906 0 26.416 21.491 47.907 47.907 47.907s47.906-21.491 47.906-47.907-21.49-47.906-47.906-47.906zm0 80.812c-18.145 0-32.907-14.762-32.907-32.907 0-15.564 10.865-28.63 25.407-32.034v14.861c0 4.142 3.358 7.5 7.5 7.5 4.143 0 7.5-3.358 7.5-7.5v-14.861c14.541 3.404 25.406 16.47 25.406 32.034 0 18.146-14.761 32.907-32.906 32.907z"/><path d="m226.276 386.311c0 13.604 11.068 24.673 24.673 24.673s24.673-11.068 24.673-24.673-11.068-24.673-24.673-24.673-24.673 11.069-24.673 24.673zm34.346 0c0 5.333-4.339 9.673-9.673 9.673-5.333 0-9.673-4.339-9.673-9.673s4.339-9.673 9.673-9.673 9.673 4.34 9.673 9.673z"/><path d="m184.278 361.638c-13.604 0-24.673 11.068-24.673 24.673s11.068 24.673 24.673 24.673 24.673-11.068 24.673-24.673-11.068-24.673-24.673-24.673zm0 34.346c-5.333 0-9.673-4.339-9.673-9.673s4.339-9.673 9.673-9.673 9.673 4.339 9.673 9.673-4.339 9.673-9.673 9.673z"/><path d="m317.62 410.984c13.604 0 24.673-11.068 24.673-24.673s-11.068-24.673-24.673-24.673-24.673 11.068-24.673 24.673 11.069 24.673 24.673 24.673zm0-34.346c5.334 0 9.673 4.339 9.673 9.673s-4.339 9.673-9.673 9.673-9.673-4.339-9.673-9.673 4.339-9.673 9.673-9.673z"/><path d="m499.449 248.5h-22.805v-35.333c0-26.191-21.309-47.5-47.5-47.5h-49.476v-78.364c0-2.549 2.073-4.622 4.622-4.622 10.819 0 19.622-8.802 19.622-19.622v-16.163c0-20.685-25.909-34.308-79.209-41.649-36.438-5.019-72.215-5.24-73.79-5.247-1.505.007-37.282.229-73.72 5.247-53.299 7.341-79.208 20.965-79.208 41.649v16.163c0 10.819 8.802 19.622 19.622 19.622 2.548 0 4.622 2.073 4.622 4.622v15.176c0 4.142 3.358 7.5 7.5 7.5s7.5-3.358 7.5-7.5v-15.176c0-10.82-8.802-19.622-19.622-19.622-2.549 0-4.622-2.073-4.622-4.622v-16.163c0-4.139 4.769-18.302 66.132-26.772 35.463-4.896 71.507-5.123 71.796-5.124.36.001 36.403.229 71.867 5.124 61.363 8.47 66.132 22.633 66.132 26.772v16.163c0 2.548-2.073 4.622-4.622 4.622-10.819 0-19.622 8.802-19.622 19.622v78.364h-227.439v-28.104c0-4.142-3.358-7.5-7.5-7.5s-7.5 3.358-7.5 7.5v28.104h-49.475c-26.191 0-47.5 21.309-47.5 47.5v159.333c0 4.142 3.358 7.5 7.5 7.5s7.5-3.358 7.5-7.5v-159.333c0-17.92 14.58-32.5 32.5-32.5h356.391c17.921 0 32.5 14.58 32.5 32.5v243.427h-421.391v-49.031c0-4.142-3.358-7.5-7.5-7.5s-7.5 3.358-7.5 7.5v49.031h-12.703c-4.142 0-7.5 3.358-7.5 7.5v40.406c0 4.142 3.358 7.5 7.5 7.5h390.949c4.143 0 7.5-3.358 7.5-7.5s-3.357-7.5-7.5-7.5h-383.449v-25.407h461.797v25.407h-43.265c-4.143 0-7.5 3.358-7.5 7.5s3.357 7.5 7.5 7.5h50.765c4.143 0 7.5-3.358 7.5-7.5v-40.407c0-4.142-3.357-7.5-7.5-7.5h-12.703v-158.747h22.805c4.143 0 7.5-3.358 7.5-7.5v-34.346c-.001-4.142-3.358-7.5-7.501-7.5zm-7.5 34.346h-15.305v-19.346h15.305z"/></svg>
